<svg xmlns="http://www.w3.org/2000/svg" xmlns:xlink="http://www.w3.org/1999/xlink" version="1.1" width="512" height="512" ><g><rect  height="512" width="512" x="0" y="0"  id="67dc9b7e6724502203762888" fill="#1EAD42"/><g id="67dc9b7e5762129406241767" transform="matrix(6.670727,0,0,6.670727,20.384252,321.894756)" ><path  d="M 11.232 -8.19Q 9.774 -9 8.28 -9.306L 8.28 0L 4.032 0L 4.032 -9.306Q 2.538 -9 1.08 -8.19L -0.324 -11.214Q 1.026 -12.024 2.7 -12.456Q 4.374 -12.888 6.156 -12.888Q 7.938 -12.888 9.612 -12.456Q 11.286 -12.024 12.636 -11.214z "  fill="white" transform="matrix(1.353363,0,0,1.353363,0,0)" /><path  d="M 11.232 -8.19Q 9.774 -9 8.28 -9.306L 8.28 0L 4.032 0L 4.032 -9.306Q 2.538 -9 1.08 -8.19L -0.324 -11.214Q 1.026 -12.024 2.7 -12.456Q 4.374 -12.888 6.156 -12.888Q 7.938 -12.888 9.612 -12.456Q 11.286 -12.024 12.636 -11.214z "  fill="white" transform="matrix(1.353363,0,0,1.353363,17.667005,0)" /><path  d="M 2.736 0.18Q 1.71 0.18 1.035 -0.477Q 0.36 -1.134 0.36 -2.16Q 0.36 -3.186 1.035 -3.825Q 1.71 -4.464 2.736 -4.464Q 3.762 -4.464 4.437 -3.825Q 5.112 -3.186 5.112 -2.16Q 5.112 -1.134 4.437 -0.477Q 3.762 0.18 2.736 0.18z "  fill="white" transform="matrix(1.353363,0,0,1.353363,35.33401,0)" /><path  d="M 7.128 -12.888Q 8.964 -12.888 10.368 -12.159Q 11.772 -11.43 12.555 -10.035Q 13.338 -8.64 13.338 -6.714L 13.338 0L 9.09 0L 9.09 -2.538L 5.094 -2.538L 5.094 0L 0.918 0L 0.918 -6.714Q 0.918 -8.64 1.701 -10.035Q 2.484 -11.43 3.888 -12.159Q 5.292 -12.888 7.128 -12.888z M 9.09 -5.742L 9.09 -7.074Q 9.09 -8.244 8.541 -8.847Q 7.992 -9.45 7.092 -9.45Q 6.192 -9.45 5.643 -8.847Q 5.094 -8.244 5.094 -7.074L 5.094 -5.742z "  fill="white" transform="matrix(1.353363,0,0,1.353363,42.818311,0)" /><path  d="M 0.9 -9.846L 4.968 -9.846L 4.968 0L 0.9 0z M 2.934 -10.638Q 1.836 -10.638 1.161 -11.223Q 0.486 -11.808 0.486 -12.708Q 0.486 -13.608 1.161 -14.193Q 1.836 -14.778 2.934 -14.778Q 4.05 -14.778 4.716 -14.22Q 5.382 -13.662 5.382 -12.78Q 5.382 -11.844 4.716 -11.241Q 4.05 -10.638 2.934 -10.638z "  fill="white" transform="matrix(1.353363,0,0,1.353363,61.435378,0)" /></g></g></svg>